<svg xmlns="http://www.w3.org/2000/svg" version="1.0" preserveAspectRatio="xMidYMid meet" viewBox="45.67 423.96 1000.29 222.55">

<g transform="translate(0.000000,1080.000000) scale(0.100000,-0.100000)" fill="#b31240" stroke="none">
<path d="M3874 6516 c-195 -146 -441 -483 -633 -869 -34 -68 -75 -139 -92 -158 -26 -29 -29 -30 -15 -6 9 15 23 37 31 50 8 13 12 27 8 32 -5 4 -2 5 4 1 9 -5 11 -2 6 10 -4 12 -3 15 5 10 8 -5 10 -1 5 10 -4 11 -3 15 5 10 6 -3 13 -2 16 3 4 5 2 12 -3 16 -6 3 -33 -28 -61 -70 -139 -205 -390 -455 -432 -429 -30 19 24 185 119 372 46 89 83 168 83 176 0 7 -16 21 -36 32 -35 19 -36 19 -53 -2 -13 -17 -22 -19 -35 -12 -12 7 -53 5 -126 -6 -60 -9 -145 -16 -189 -16 -76 0 -81 1 -109 31 -19 20 -40 31 -63 33 -19 2 -45 6 -57 10 -21 7 -23 6 -13 -11 8 -17 3 -27 -35 -64 -25 -24 -60 -66 -77 -92 -31 -47 -97 -97 -130 -97 -17 0 -29 32 -47 123 -6 32 -21 69 -33 83 -27 31 -80 36 -105 9 -16 -18 -16 -18 3 -5 11 8 -1 -8 -26 -36 -25 -27 -68 -79 -94 -115 -26 -35 -51 -63 -55 -62 -4 1 -7 -4 -6 -12 0 -8 -3 -13 -9 -12 -5 1 -9 7 -7 12 11 36 90 220 114 268 33 62 31 87 -5 87 -19 0 -32 -15 -66 -77 -50 -92 -169 -371 -199 -463 -35 -111 -35 -118 -8 -145 14 -14 31 -22 38 -20 14 6 132 202 157 260 50 118 201 309 230 290 6 -3 11 -25 11 -47 0 -85 70 -178 133 -178 l32 0 0 -73 c0 -59 4 -79 25 -112 31 -52 48 -64 86 -65 130 -1 274 148 274 283 0 30 -7 73 -15 96 l-14 41 104 0 c57 0 138 5 180 11 42 6 78 9 80 7 3 -3 -12 -43 -34 -89 -48 -103 -84 -212 -101 -302 -15 -80 -6 -105 46 -137 56 -35 121 -23 199 36 43 32 181 194 239 278 26 39 45 62 41 51 -42 -122 -78 -273 -82 -347 -5 -74 -2 -96 16 -145 26 -68 44 -92 96 -127 52 -36 122 -35 192 2 77 39 196 144 279 244 77 92 158 207 152 213 -2 2 -34 -35 -71 -83 -71 -94 -176 -206 -184 -198 -3 2 31 47 74 98 44 51 105 126 136 166 l56 73 -2 -53 c-2 -51 0 -55 47 -105 62 -67 100 -80 192 -65 124 21 301 129 432 266 45 47 82 84 82 83 0 -2 -13 -42 -29 -90 -38 -112 -59 -232 -45 -255 6 -9 26 -27 44 -39 47 -33 104 -30 161 6 71 46 219 207 278 304 12 20 24 37 26 37 2 0 -8 -30 -22 -67 -42 -110 -63 -183 -63 -216 1 -37 50 -104 69 -93 6 4 23 31 38 59 32 65 91 152 160 240 111 139 226 257 239 244 3 -3 12 -54 20 -115 15 -118 30 -163 76 -229 36 -53 77 -77 111 -64 69 27 232 249 225 308 -3 27 -4 26 -53 -27 -168 -184 -240 -227 -272 -160 -6 14 -19 87 -27 164 -11 101 -20 144 -33 160 -55 66 -78 63 -167 -23 -39 -39 -103 -108 -141 -155 -38 -47 -71 -83 -73 -81 -6 5 107 249 149 320 l39 68 -21 43 c-11 24 -24 44 -27 44 -7 0 -121 -196 -162 -280 -29 -58 -80 -133 -87 -126 -3 2 9 25 26 49 16 24 27 47 24 51 -4 3 -1 6 6 6 7 0 9 5 5 12 -4 6 -3 8 3 5 6 -4 13 0 17 8 3 8 2 17 -3 19 -4 3 -30 -28 -58 -68 -121 -173 -302 -363 -386 -405 l-42 -21 -3 31 c-6 52 44 190 129 361 75 151 78 162 63 179 -37 41 -46 36 -211 -128 -87 -87 -171 -165 -188 -173 -16 -8 -41 -24 -55 -35 -97 -83 -271 -151 -364 -143 -58 5 -54 23 10 52 131 60 277 183 309 261 27 63 20 93 -32 145 -38 38 -59 50 -100 59 -29 6 -59 8 -67 5 -28 -11 -136 -147 -186 -235 -59 -103 -130 -186 -326 -385 -123 -125 -162 -157 -222 -188 -122 -63 -177 -40 -189 77 -9 87 25 247 53 247 32 0 93 41 145 97 191 207 465 628 631 968 64 133 71 175 37 219 -32 40 -74 35 -145 -18z m106 -37 c0 -63 -199 -429 -353 -649 -189 -269 -395 -522 -404 -494 -2 5 17 62 43 125 25 62 55 137 66 164 76 191 347 585 527 768 58 59 109 107 113 107 5 0 8 -9 8 -21z m-446 -391 c-29 -50 -130 -187 -109 -148 14 25 108 160 112 160 2 0 1 -6 -3 -12z m-119 -188 c-10 -11 -15 -23 -12 -26 9 -10 -13 -45 -24 -39 -9 6 -10 5 -14 -33 -3 -29 -11 -37 -18 -19 -6 17 60 137 75 137 6 0 3 -9 -7 -20z m-79 -140 c0 -10 -2 -17 -5 -15 -8 9 -112 -225 -105 -237 5 -7 3 -8 -6 -3 -9 6 -10 2 -5 -15 5 -17 4 -21 -6 -15 -9 6 -11 3 -6 -9 5 -11 3 -15 -5 -10 -8 5 -9 2 -5 -9 3 -10 3 -17 -2 -17 -5 0 -12 -12 -15 -26 -4 -15 -9 -24 -12 -21 -11 10 154 397 169 397 1 0 3 -9 3 -20z m877 -111 c19 -30 -18 -102 -90 -174 -72 -73 -206 -172 -211 -156 -5 14 64 148 106 206 20 27 57 72 81 98 37 40 50 47 74 45 17 -2 35 -10 40 -19z m-1876 -19 c54 -23 68 -92 37 -182 -31 -92 -146 -188 -226 -188 -37 0 -38 1 -38 38 0 57 25 129 67 200 43 71 112 155 121 149 4 -2 21 -10 39 -17z m-757 -162 c-80 -193 -100 -238 -95 -213 4 17 22 68 42 115 19 47 37 93 40 103 3 9 9 17 14 17 5 0 4 -10 -1 -22z m2930 -32 c0 -2 -8 -10 -17 -17 -16 -13 -17 -12 -4 4 13 16 21 21 21 13z m-2900 -26 c-6 -11 -13 -20 -16 -20 -2 0 0 9 6 20 6 11 13 20 16 20 2 0 0 -9 -6 -20z m1507 -262 c-3 -8 -6 -5 -6 6 -1 11 2 17 5 13 3 -3 4 -12 1 -19z" fill="#b31240"/>
<path d="M3385 5859 c-4 -6 -5 -12 -2 -15 2 -3 7 2 10 11 7 17 1 20 -8 4z" fill="#b31240"/>
<path d="M1530 6480 c-52 -5 -115 -6 -140 -3 -39 4 -49 1 -72 -21 -25 -26 -309 -131 -556 -206 -93 -28 -284 -114 -302 -135 -9 -11 2 -80 15 -93 3 -4 54 19 113 50 184 97 360 169 549 224 95 28 101 28 85 12 -7 -7 -12 -22 -12 -34 0 -12 -7 -24 -15 -28 -14 -5 -112 -191 -139 -263 -7 -21 -25 -65 -40 -98 -31 -73 -127 -338 -123 -342 2 -1 40 91 86 205 87 216 198 452 213 452 4 0 -14 -45 -42 -100 -28 -55 -48 -100 -44 -100 3 0 -2 -7 -10 -16 -15 -14 -21 -36 -17 -58 1 -5 -5 -16 -14 -26 -8 -9 -12 -20 -8 -23 3 -4 1 -7 -6 -7 -8 0 -11 -7 -7 -15 3 -8 2 -15 -3 -15 -5 0 -16 -21 -25 -47 -10 -27 -24 -60 -32 -75 -8 -14 -14 -31 -14 -38 0 -22 -65 -150 -77 -150 -6 0 -13 -4 -15 -8 -2 -5 -34 -19 -73 -31 -94 -30 -215 -87 -215 -101 0 -11 28 -70 33 -70 1 0 47 20 102 44 55 24 101 41 103 37 1 -4 -7 -33 -18 -66 -11 -32 -18 -60 -16 -62 2 -2 14 26 26 64 28 86 44 104 37 43 l-5 -45 20 47 c12 29 28 48 41 52 12 3 23 4 25 2 2 -2 -15 -53 -38 -112 -57 -152 -93 -261 -152 -464 l-13 -45 -3 38 c-5 64 39 243 115 465 4 13 1 12 -10 -3 -9 -11 -17 -29 -17 -39 0 -11 -12 -44 -26 -73 -14 -30 -23 -57 -20 -61 3 -3 2 -10 -3 -16 -6 -6 -19 -45 -30 -85 -11 -41 -23 -76 -26 -79 -12 -12 -3 31 25 128 17 56 29 104 27 106 -7 7 -66 -205 -79 -284 -12 -71 -11 -75 12 -120 14 -26 30 -47 37 -47 7 0 18 -6 24 -12 17 -17 49 -16 49 1 0 7 -7 20 -16 27 -14 11 -15 27 -9 109 3 52 10 99 14 105 5 5 16 35 25 65 10 30 47 135 83 232 62 168 67 178 97 187 93 30 203 51 299 57 59 4 110 10 112 14 3 4 -2 13 -11 20 -11 10 -12 15 -3 21 8 4 4 12 -13 23 -23 15 -34 15 -129 1 -57 -9 -120 -20 -139 -25 -35 -10 -100 -14 -100 -6 0 3 34 87 76 188 95 228 190 418 261 525 63 94 60 92 228 117 188 27 411 -1 546 -69 51 -27 56 -34 37 -53 -9 -9 -7 -16 8 -33 l19 -21 22 26 c19 23 21 30 11 58 -22 67 -95 116 -238 158 -86 25 -297 34 -460 20z m407 -46 c-3 -3 -12 -4 -19 -1 -8 3 -5 6 6 6 11 1 17 -2 13 -5z m53 -4 c-8 -5 -22 -9 -30 -9 -10 0 -8 3 5 9 27 12 43 12 25 0z m-322 -7 c-10 -2 -28 -2 -40 0 -13 2 -5 4 17 4 22 1 32 -1 23 -4z m160 0 c-16 -2 -40 -2 -55 0 -16 2 -3 4 27 4 30 0 43 -2 28 -4z m192 -3 c-8 -5 -19 -10 -25 -10 -5 0 -3 5 5 10 8 5 20 10 25 10 6 0 3 -5 -5 -10z m-447 -7 c-13 -2 -33 -2 -45 0 -13 2 -3 4 22 4 25 0 35 -2 23 -4z m497 -3 c8 -5 11 -10 5 -10 -5 0 -17 5 -25 10 -8 5 -10 10 -5 10 6 0 17 -5 25 -10z m56 -26 c18 -14 18 -14 -6 -3 -31 14 -36 19 -24 19 6 0 19 -7 30 -16z m-886 -3 c-14 -8 -138 -43 -200 -56 -14 -2 20 11 75 29 97 34 159 47 125 27z m956 -42 c3 -6 -5 -3 -20 6 -14 10 -26 19 -26 22 0 7 39 -17 46 -28z m-981 2 c-6 -5 -62 -25 -125 -46 -63 -20 -144 -48 -179 -61 -70 -27 -106 -32 -51 -8 30 14 347 122 360 124 2 0 0 -4 -5 -9z m-205 -25 c0 -6 -93 -37 -97 -32 -2 2 15 11 39 19 47 17 58 19 58 13z m163 -243 c-9 -21 -38 -102 -64 -180 -26 -77 -57 -160 -68 -184 -12 -23 -21 -51 -21 -61 0 -9 -8 -34 -17 -55 -25 -52 -63 -82 -63 -49 0 32 231 566 244 566 4 0 -1 -17 -11 -37z m90 -510 c-7 -2 -21 -2 -30 0 -10 3 -4 5 12 5 17 0 24 -2 18 -5z m-70 -10 c-7 -2 -19 -2 -25 0 -7 3 -2 5 12 5 14 0 19 -2 13 -5z" fill="#b31240"/>
<path d="M7410 6480 c-52 -5 -114 -6 -138 -3 -38 5 -47 2 -73 -23 -29 -28 -210 -94 -527 -194 -67 -21 -169 -61 -227 -89 -103 -49 -105 -51 -105 -83 0 -19 6 -42 13 -53 13 -17 19 -15 109 33 104 57 392 182 418 182 9 0 20 4 26 9 7 6 183 61 198 61 2 0 -2 -16 -8 -35 -6 -19 -14 -35 -18 -35 -10 0 -94 -157 -124 -232 -14 -35 -36 -85 -49 -113 -13 -27 -31 -75 -41 -105 -9 -30 -32 -95 -51 -144 -59 -158 -29 -101 46 87 78 192 178 409 205 442 9 11 -12 -38 -46 -110 -33 -71 -62 -136 -63 -145 -1 -8 -7 -28 -14 -45 -7 -16 -12 -32 -11 -34 1 -2 -2 -7 -7 -10 -12 -8 -45 -91 -36 -91 3 0 -1 -8 -9 -17 -9 -10 -19 -29 -23 -43 -4 -14 -15 -43 -25 -65 -11 -22 -24 -53 -30 -70 -8 -21 -13 -26 -19 -16 -6 9 -10 8 -13 -7 -3 -11 -18 -22 -34 -26 -45 -11 -228 -85 -248 -99 -18 -13 -18 -15 -1 -51 10 -20 23 -35 29 -32 146 64 190 79 194 67 3 -10 9 -7 18 10 13 24 13 24 14 -11 l1 -35 19 36 c18 34 46 56 58 44 3 -2 -7 -37 -23 -77 -57 -151 -107 -294 -116 -333 -5 -22 -12 -47 -16 -55 -3 -8 -8 -24 -9 -35 -11 -61 -28 -105 -37 -96 -14 14 8 140 45 265 28 95 33 130 11 83 -9 -18 -57 -168 -70 -216 -2 -8 -6 -11 -9 -8 -4 3 8 54 25 113 18 58 30 108 28 110 -6 6 -55 -161 -72 -246 -9 -41 -13 -88 -9 -105 8 -38 43 -97 54 -90 4 3 13 -2 20 -10 16 -19 50 -20 50 -1 0 7 -7 20 -16 27 -14 11 -15 25 -9 84 4 38 8 81 9 95 0 14 6 34 13 45 6 11 19 47 28 80 9 33 22 74 30 90 7 17 34 89 60 160 26 72 53 133 59 137 24 16 237 58 321 64 112 7 121 10 105 29 -6 8 -9 19 -6 24 4 6 -4 17 -16 25 -21 13 -35 14 -125 1 -56 -8 -121 -19 -146 -25 -24 -7 -56 -10 -70 -8 l-27 3 89 210 c48 116 109 253 135 305 51 101 142 244 173 272 27 25 180 50 318 52 101 2 138 -2 230 -25 104 -25 215 -70 215 -87 0 -4 -5 -13 -12 -20 -15 -15 17 -53 38 -45 40 15 35 84 -8 131 -31 33 -121 77 -210 103 -84 24 -299 33 -458 19z m516 -58 c23 -13 -65 -7 -111 7 -24 7 -18 9 31 6 34 -1 70 -7 80 -13z m-373 1 c-13 -2 -33 -2 -45 0 -13 2 -3 4 22 4 25 0 35 -2 23 -4z m155 0 c-16 -2 -40 -2 -55 0 -16 2 -3 4 27 4 30 0 43 -2 28 -4z m-255 -10 c-13 -2 -33 -2 -45 0 -13 2 -3 4 22 4 25 0 35 -2 23 -4z m555 -27 c27 -14 55 -33 63 -43 13 -16 12 -17 -2 -5 -9 7 -41 26 -70 42 -65 36 -58 40 9 6z m-891 -7 c-10 -6 -53 -19 -95 -29 -42 -10 -110 -30 -150 -45 -41 -15 -76 -24 -78 -22 -7 6 295 106 321 106 19 0 19 0 2 -10z m-207 -104 c-102 -36 -189 -64 -195 -64 -22 1 340 128 365 128 8 0 -68 -29 -170 -64z m125 -256 c-18 -46 -49 -131 -68 -189 -55 -165 -73 -210 -81 -203 -4 4 -4 0 -1 -9 10 -25 -29 -88 -54 -88 -6 0 -11 4 -11 10 0 31 236 577 245 568 3 -2 -11 -42 -30 -89z m113 -456 c-10 -2 -26 -2 -35 0 -10 3 -2 5 17 5 19 0 27 -2 18 -5z m-75 -10 c-7 -2 -19 -2 -25 0 -7 3 -2 5 12 5 14 0 19 -2 13 -5z" fill="#b31240"/>
<path d="M3058 6090 c-22 -13 -134 -162 -143 -190 -4 -14 -1 -28 11 -41 29 -33 50 -23 85 39 18 31 45 76 61 100 41 60 32 118 -14 92z" fill="#b31240"/>
<path d="M4888 6048 c-67 -79 -108 -139 -108 -158 0 -20 31 -50 52 -50 8 0 27 21 41 48 14 26 42 72 62 102 37 58 43 102 14 108 -10 2 -35 -18 -61 -50z" fill="#b31240"/>
<path d="M2215 5963 c-59 -14 -59 -115 -1 -155 21 -14 73 -8 89 10 19 21 22 73 7 103 -9 16 -62 52 -72 48 -2 -1 -12 -3 -23 -6z" fill="#b31240"/>
<path d="M2423 5963 c-25 -5 -48 -53 -39 -86 3 -13 15 -36 27 -50 28 -37 86 -37 112 -1 45 61 -21 152 -100 137z" fill="#b31240"/>
<path d="M9865 5891 c-125 -57 -394 -331 -472 -481 -30 -58 -94 -110 -135 -110 -39 0 -53 36 -67 175 -15 149 -18 157 -51 193 -47 52 -69 45 -164 -51 -46 -46 -109 -116 -140 -155 -32 -40 -60 -72 -62 -72 -7 0 11 40 97 217 l89 183 -21 42 -21 42 -19 -25 c-34 -46 -113 -193 -174 -326 -60 -132 -62 -135 -135 -193 -88 -71 -201 -133 -233 -128 -19 3 -22 8 -19 42 2 21 28 106 58 188 62 171 66 208 27 248 -16 15 -41 42 -56 59 -75 82 -156 18 -373 -296 -61 -88 -94 -152 -108 -207 -6 -23 -9 -27 -17 -15 -13 21 -11 6 6 -34 18 -43 47 -62 73 -48 28 15 93 88 178 200 78 102 158 186 195 206 11 6 26 21 35 33 28 40 35 23 10 -25 -39 -79 -96 -240 -96 -274 0 -36 31 -91 63 -114 51 -36 158 -7 251 68 30 23 38 26 32 12 -4 -11 -10 -38 -13 -61 -5 -36 -1 -48 22 -78 15 -20 33 -36 40 -36 7 0 30 34 51 75 21 41 75 123 119 182 90 121 252 296 269 290 6 -2 16 -52 23 -111 17 -146 65 -249 132 -289 35 -21 62 -13 114 32 19 17 41 29 49 26 15 -6 38 32 38 61 0 8 18 44 40 80 22 36 40 69 40 73 0 4 26 37 58 74 137 159 362 316 362 253 0 -33 -76 -159 -153 -256 -92 -115 -228 -250 -252 -250 -12 0 -10 -10 11 -50 l26 -51 27 17 c14 10 49 32 76 51 28 18 78 42 112 53 73 22 183 37 183 23 0 -5 -39 -41 -87 -80 -333 -270 -643 -659 -643 -807 0 -56 25 -110 57 -125 110 -50 445 214 640 504 109 163 170 363 140 468 -7 25 -3 30 62 72 95 61 205 113 257 121 46 7 56 22 28 45 -40 33 -154 -6 -318 -109 l-80 -49 -44 20 c-36 15 -60 18 -118 15 -83 -6 -82 -9 -12 73 60 69 148 240 148 286 0 62 -48 123 -95 123 -11 0 -38 -9 -60 -19z m-1558 -232 c-8 -19 -31 -50 -51 -68 -20 -19 -36 -38 -36 -43 0 -4 -20 -26 -45 -49 -25 -23 -45 -44 -45 -48 0 -9 -140 -158 -140 -149 0 16 75 130 137 206 38 46 78 98 91 114 12 17 22 28 22 23 0 -4 16 7 36 25 20 17 38 29 41 27 2 -3 -2 -20 -10 -38z m1963 -164 c0 -2 -18 -14 -40 -25 -22 -11 -40 -18 -40 -15 0 2 17 13 38 24 42 23 42 23 42 16z m-250 -159 c0 -2 -30 -28 -67 -57 -38 -29 -102 -82 -143 -118 -41 -35 -64 -52 -50 -36 22 25 249 215 257 215 2 0 3 -2 3 -4z m40 -78 c0 -64 -42 -189 -94 -283 -136 -242 -437 -532 -600 -576 -56 -15 -70 -7 -63 41 24 180 348 571 686 827 31 23 59 43 64 43 4 0 7 -24 7 -52z m-370 -202 c0 -2 -8 -10 -17 -17 -16 -13 -17 -12 -4 4 13 16 21 21 21 13z m-40 -49 c0 -1 -24 -25 -52 -52 l-53 -50 50 53 c46 48 55 57 55 49z m-110 -121 c0 -2 -8 -10 -17 -17 -16 -13 -17 -12 -4 4 13 16 21 21 21 13z" fill="#b31240"/>
<path d="M7537 5733 c-79 -155 -198 -451 -220 -552 -6 -26 34 -76 56 -69 15 6 85 119 139 228 23 47 60 114 81 150 42 68 143 180 163 180 6 0 14 -23 17 -54 14 -140 115 -218 195 -151 30 25 68 92 58 102 -3 3 -26 -13 -51 -35 -50 -44 -90 -59 -110 -42 -7 6 -19 43 -26 82 -22 123 -81 175 -136 120 -15 -15 -20 -18 -13 -7 12 17 12 18 0 7 -8 -7 -15 -17 -15 -22 0 -4 -23 -37 -51 -72 -28 -34 -70 -92 -93 -127 -48 -74 -60 -89 -38 -45 9 17 14 34 12 36 -6 6 67 186 107 264 34 66 33 94 -6 94 -20 0 -31 -14 -69 -87z m-119 -375 c-49 -120 -72 -162 -47 -87 33 100 87 225 94 217 2 -2 -19 -61 -47 -130z" fill="#b31240"/>
<path d="M6716 5316 c-10 -19 -16 -42 -14 -52 3 -13 10 -2 21 30 20 59 18 67 -7 22z" fill="#b31240"/>
</g>
</svg>